<mxfile host="app.diagrams.net" modified="2023-05-03T14:19:57.254Z" agent="Mozilla/5.0 (Macintosh; Intel Mac OS X 10_15_7) AppleWebKit/537.36 (KHTML, like Gecko) Chrome/105.0.0.0 Safari/537.36" version="21.2.7" etag="CQfPuXzNEC0iKrJ3OLiN" type="github">
  <diagram name="Страница 1" id="Szfjot6jaCzlm0DRO9Fw">
    <mxGraphModel>
      <root>
        <mxCell id="0" />
        <mxCell id="1" parent="0" />
      </root>
    </mxGraphModel>
  </diagram>
</mxfile>
